<mxfile host="app.diagrams.net" agent="Mozilla/5.0 (Windows NT 10.0; Win64; x64) AppleWebKit/537.36 (KHTML, like Gecko) Chrome/132.0.0.0 Safari/537.36" version="26.0.11">
  <diagram name="Page-1" id="hDBnATX-_rqYMnIlR0UH">
    <mxGraphModel dx="1434" dy="1907" grid="1" gridSize="10" guides="1" tooltips="1" connect="1" arrows="1" fold="1" page="1" pageScale="1" pageWidth="827" pageHeight="1169" math="0" shadow="0">
      <root>
        <mxCell id="0" />
        <mxCell id="1" parent="0" />
        <mxCell id="zUcGBLIIrt0SRUpq_5Xp-2" value="app/page.tsx" style="rounded=0;whiteSpace=wrap;html=1;fillColor=#d5e8d4;strokeColor=#82b366;align=center;" vertex="1" parent="1">
          <mxGeometry x="40" y="150" width="140" height="110" as="geometry" />
        </mxCell>
        <mxCell id="zUcGBLIIrt0SRUpq_5Xp-6" value="- definiramo stoppages array (sve stanice iz obje dvije rute, ZG_DB, ZD-ZG)&lt;br&gt;- imamo formu u kojoj smo u&amp;nbsp; kojoj biramo polazište (origin), destinaciju (destination) i datum (doj=date of journey)&lt;br&gt;- origin state --&amp;gt;&amp;nbsp; &amp;nbsp; &amp;nbsp; &amp;nbsp; &amp;nbsp; &amp;nbsp; &amp;nbsp; places&amp;lt;string&amp;gt;, origin&amp;lt;string&amp;gt;, filteredOrigins&amp;lt;string[ ]&amp;gt;, originSuggestion&amp;lt;boolean&amp;gt;)&lt;br&gt;&lt;div&gt;- destination state --&amp;gt;&amp;nbsp; &amp;nbsp; &amp;nbsp;stops&amp;lt;string&amp;gt;, destination&amp;lt;string&amp;gt;, filteredDestination&amp;lt;string[ ]&amp;gt;, destinationSuggestion&amp;lt;boolean&amp;gt;&lt;br&gt;&lt;br&gt;form &amp;gt; input&lt;br&gt;&amp;lt;input name=&quot;from&quot; value={places} onChange={handleSearchOrigin} /&amp;gt;&lt;br&gt;&lt;br&gt;&lt;b&gt;handleSearchOrigin(e)&amp;nbsp;&lt;/b&gt;-&amp;gt;&amp;nbsp;&lt;br&gt;&lt;span style=&quot;white-space: pre;&quot;&gt;&#x9;&lt;/span&gt;1) setOriginSuggestion(true) -&amp;gt; boolean state koji koristimo za prikaz opcija stanica koje možemo izabrati (za prikaz dropdowna ispod input polja)&lt;br&gt;&lt;span style=&quot;white-space: pre;&quot;&gt;&#x9;&lt;/span&gt;2) setPlaces(query) -&amp;gt; query je e.target.value input polja (deklarirali smo ga u funkcji red iznad) --&amp;gt; kad nešto upišemo u input polje to je query i onda sa setPlaces postavimo places za tu vrijednost.&lt;br&gt;&lt;/div&gt;&lt;div&gt;&lt;span style=&quot;white-space: pre;&quot;&gt;&#x9;&lt;/span&gt;3) setFilteredOrigin(filteredResult);&amp;nbsp; -&amp;gt; filteredResult smo deklarirali unutar funkcije red iznad kao:&amp;nbsp;&lt;br&gt;&lt;pre&gt;&lt;span style=&quot;white-space: pre;&quot;&gt;&#x9;&lt;/span&gt;&lt;span style=&quot;white-space: pre;&quot;&gt;&#x9;&lt;/span&gt;&lt;span style=&quot;background-color: transparent;&quot;&gt;const filteredResult: string[] = stoppages.filter((stopp) =&amp;gt;&lt;br&gt;      &lt;span style=&quot;white-space: pre;&quot;&gt;&#x9;&lt;/span&gt;&lt;span style=&quot;white-space: pre;&quot;&gt;&#x9;&lt;/span&gt;&lt;span style=&quot;white-space: pre;&quot;&gt;&#x9;&lt;/span&gt;stopp.toLowerCase().startsWith(query.toLowerCase()),&lt;br&gt;    &lt;span style=&quot;white-space: pre;&quot;&gt;&#x9;&lt;/span&gt;&lt;span style=&quot;white-space: pre;&quot;&gt;&#x9;&lt;/span&gt;);&lt;/span&gt;&lt;/pre&gt;&lt;pre&gt;&lt;p&gt;&lt;span style=&quot;background-color: transparent;&quot;&gt;     &lt;font face=&quot;Helvetica&quot;&gt;Kada prikazuje dropdown koji smo sa setOriginSuggestion(true) &amp;amp;&amp;amp; places(...) otvorili, koristimo filteredResult kako &lt;br&gt;          bi nam ponudio opcije koje počinju sa slovima koje smo opisali, a nalaze se unutar stoppages arraya.&lt;/font&gt;&lt;/span&gt;&lt;/p&gt;&lt;span style=&quot;background-color: transparent;&quot;&gt;&lt;span style=&quot;white-space: pre;&quot;&gt;&#x9;&lt;/span&gt;&lt;span style=&quot;white-space: pre;&quot;&gt;&#x9;&lt;/span&gt;&lt;/span&gt;&lt;/pre&gt;&lt;/div&gt;" style="rounded=1;whiteSpace=wrap;html=1;align=left;" vertex="1" parent="1">
          <mxGeometry x="310" y="-30" width="940" height="390" as="geometry" />
        </mxCell>
      </root>
    </mxGraphModel>
  </diagram>
</mxfile>
